<svg width="131" height="88" viewBox="0 0 131 88" fill="none" xmlns="http://www.w3.org/2000/svg">
<path d="M59.1667 87.3333H32.5417C23.5681 87.3333 15.9001 84.4677 9.53767 78.7365C3.17528 73.0052 -0.00394078 66.0004 3.66584e-06 57.7219C3.66584e-06 50.626 2.31736 44.3035 6.95209 38.7542C11.5868 33.2049 17.6514 29.6569 25.1458 28.1104C27.6111 19.741 32.5417 12.9635 39.9375 7.77813C47.3333 2.59271 55.7153 0 65.0833 0C76.6208 0 86.409 3.70803 94.4477 11.1241C102.487 18.5401 106.504 27.5682 106.5 38.2083C113.304 38.9361 118.951 41.6434 123.439 46.3303C127.928 51.0172 130.171 56.4974 130.167 62.7708C130.167 69.5938 127.577 75.3941 122.398 80.172C117.219 84.9499 110.934 87.337 103.542 87.3333H71V48.3063L80.4667 56.7667L88.75 49.125L65.0833 27.2917L41.4167 49.125L49.7 56.7667L59.1667 48.3063V87.3333Z" fill="#205280"/>
</svg>
