<svg width="230" height="52" viewBox="0 0 230 52" fill="none" xmlns="http://www.w3.org/2000/svg">
<rect y="1" width="224" height="50" rx="3" fill="white"/>
<rect y="1" width="224" height="23" rx="3" fill="#205280"/>
<path d="M14.296 18.126C14.104 18.126 13.948 18.084 13.828 18C13.72 17.904 13.654 17.784 13.63 17.64C13.618 17.484 13.654 17.31 13.738 17.118L18.688 5.85C18.796 5.61 18.922 5.442 19.066 5.346C19.222 5.238 19.39 5.184 19.57 5.184C19.75 5.184 19.912 5.238 20.056 5.346C20.212 5.442 20.338 5.61 20.434 5.85L25.402 17.118C25.498 17.31 25.534 17.484 25.51 17.64C25.498 17.796 25.438 17.916 25.33 18C25.222 18.084 25.072 18.126 24.88 18.126C24.664 18.126 24.49 18.072 24.358 17.964C24.226 17.844 24.118 17.676 24.034 17.46L22.702 14.382L23.422 14.76H15.682L16.42 14.382L15.106 17.46C14.998 17.688 14.884 17.856 14.764 17.964C14.644 18.072 14.488 18.126 14.296 18.126ZM19.552 7.038L16.654 13.86L16.222 13.518H22.882L22.486 13.86L19.588 7.038H19.552ZM28.2013 18.126C27.9613 18.126 27.7813 18.06 27.6613 17.928C27.5413 17.796 27.4813 17.61 27.4813 17.37V5.922C27.4813 5.682 27.5413 5.502 27.6613 5.382C27.7813 5.25 27.9613 5.184 28.2013 5.184C28.4293 5.184 28.6093 5.25 28.7413 5.382C28.8733 5.502 28.9393 5.682 28.9393 5.922V11.196H28.7053C28.9573 10.5 29.3653 9.978 29.9293 9.63C30.5053 9.27 31.1653 9.09 31.9093 9.09C32.6053 9.09 33.1813 9.216 33.6373 9.468C34.1053 9.72 34.4533 10.104 34.6813 10.62C34.9093 11.124 35.0233 11.766 35.0233 12.546V17.37C35.0233 17.61 34.9573 17.796 34.8253 17.928C34.7053 18.06 34.5313 18.126 34.3033 18.126C34.0633 18.126 33.8773 18.06 33.7453 17.928C33.6253 17.796 33.5653 17.61 33.5653 17.37V12.636C33.5653 11.82 33.4033 11.226 33.0793 10.854C32.7673 10.47 32.2633 10.278 31.5673 10.278C30.7633 10.278 30.1213 10.53 29.6413 11.034C29.1733 11.526 28.9393 12.186 28.9393 13.014V17.37C28.9393 17.874 28.6933 18.126 28.2013 18.126ZM38.4678 18.126C38.2278 18.126 38.0478 18.06 37.9278 17.928C37.8078 17.796 37.7478 17.61 37.7478 17.37V9.864C37.7478 9.624 37.8078 9.444 37.9278 9.324C38.0478 9.192 38.2218 9.126 38.4498 9.126C38.6778 9.126 38.8518 9.192 38.9718 9.324C39.1038 9.444 39.1698 9.624 39.1698 9.864V11.448L38.9718 11.196C39.1998 10.524 39.5658 10.008 40.0698 9.648C40.5858 9.276 41.1978 9.09 41.9058 9.09C42.6498 9.09 43.2498 9.27 43.7058 9.63C44.1738 9.978 44.4858 10.524 44.6418 11.268H44.3718C44.5878 10.596 44.9718 10.068 45.5238 9.684C46.0878 9.288 46.7418 9.09 47.4858 9.09C48.1458 9.09 48.6858 9.216 49.1058 9.468C49.5378 9.72 49.8618 10.104 50.0778 10.62C50.2938 11.124 50.4018 11.766 50.4018 12.546V17.37C50.4018 17.61 50.3358 17.796 50.2038 17.928C50.0838 18.06 49.9038 18.126 49.6638 18.126C49.4358 18.126 49.2558 18.06 49.1238 17.928C49.0038 17.796 48.9438 17.61 48.9438 17.37V12.618C48.9438 11.814 48.8058 11.226 48.5298 10.854C48.2538 10.47 47.7858 10.278 47.1258 10.278C46.4058 10.278 45.8358 10.53 45.4158 11.034C45.0078 11.526 44.8038 12.198 44.8038 13.05V17.37C44.8038 17.61 44.7378 17.796 44.6058 17.928C44.4858 18.06 44.3058 18.126 44.0658 18.126C43.8378 18.126 43.6578 18.06 43.5258 17.928C43.4058 17.796 43.3458 17.61 43.3458 17.37V12.618C43.3458 11.814 43.2018 11.226 42.9138 10.854C42.6378 10.47 42.1758 10.278 41.5278 10.278C40.8078 10.278 40.2378 10.53 39.8178 11.034C39.4098 11.526 39.2058 12.198 39.2058 13.05V17.37C39.2058 17.874 38.9598 18.126 38.4678 18.126ZM55.8818 18.162C55.2818 18.162 54.7418 18.048 54.2618 17.82C53.7938 17.58 53.4218 17.256 53.1458 16.848C52.8698 16.44 52.7318 15.984 52.7318 15.48C52.7318 14.832 52.8938 14.322 53.2178 13.95C53.5538 13.578 54.0998 13.314 54.8558 13.158C55.6238 13.002 56.6678 12.924 57.9878 12.924H58.7978V13.878H58.0058C57.0338 13.878 56.2658 13.926 55.7018 14.022C55.1498 14.106 54.7598 14.256 54.5318 14.472C54.3158 14.688 54.2078 14.994 54.2078 15.39C54.2078 15.882 54.3758 16.284 54.7118 16.596C55.0598 16.908 55.5278 17.064 56.1158 17.064C56.5958 17.064 57.0158 16.95 57.3758 16.722C57.7478 16.494 58.0358 16.182 58.2398 15.786C58.4558 15.39 58.5638 14.934 58.5638 14.418V12.366C58.5638 11.622 58.4138 11.088 58.1138 10.764C57.8138 10.428 57.3218 10.26 56.6378 10.26C56.2178 10.26 55.7978 10.314 55.3778 10.422C54.9578 10.53 54.5138 10.704 54.0458 10.944C53.8778 11.028 53.7338 11.058 53.6138 11.034C53.4938 10.998 53.3978 10.932 53.3258 10.836C53.2538 10.74 53.2118 10.632 53.1998 10.512C53.1878 10.38 53.2118 10.254 53.2718 10.134C53.3438 10.014 53.4518 9.918 53.5958 9.846C54.1238 9.582 54.6458 9.39 55.1618 9.27C55.6778 9.15 56.1698 9.09 56.6378 9.09C57.3938 9.09 58.0178 9.216 58.5098 9.468C59.0018 9.708 59.3678 10.08 59.6078 10.584C59.8478 11.076 59.9678 11.712 59.9678 12.492V17.37C59.9678 17.61 59.9078 17.796 59.7878 17.928C59.6798 18.06 59.5178 18.126 59.3018 18.126C59.0738 18.126 58.8998 18.06 58.7798 17.928C58.6598 17.796 58.5998 17.61 58.5998 17.37V15.966H58.7618C58.6658 16.422 58.4798 16.812 58.2038 17.136C57.9398 17.46 57.6098 17.712 57.2138 17.892C56.8178 18.072 56.3738 18.162 55.8818 18.162ZM66.0027 18.162C65.2227 18.162 64.5387 17.976 63.9507 17.604C63.3747 17.232 62.9247 16.71 62.6007 16.038C62.2887 15.354 62.1327 14.55 62.1327 13.626C62.1327 12.69 62.2887 11.886 62.6007 11.214C62.9247 10.53 63.3747 10.008 63.9507 9.648C64.5387 9.276 65.2227 9.09 66.0027 9.09C66.7947 9.09 67.4727 9.288 68.0367 9.684C68.6007 10.08 68.9787 10.614 69.1707 11.286H68.9727V5.922C68.9727 5.682 69.0327 5.502 69.1527 5.382C69.2847 5.25 69.4707 5.184 69.7107 5.184C69.9387 5.184 70.1127 5.25 70.2327 5.382C70.3647 5.502 70.4307 5.682 70.4307 5.922V17.37C70.4307 17.61 70.3707 17.796 70.2507 17.928C70.1307 18.06 69.9507 18.126 69.7107 18.126C69.4827 18.126 69.3027 18.06 69.1707 17.928C69.0507 17.796 68.9907 17.61 68.9907 17.37V15.66L69.1887 15.912C68.9967 16.596 68.6127 17.142 68.0367 17.55C67.4727 17.958 66.7947 18.162 66.0027 18.162ZM66.3087 16.992C66.8487 16.992 67.3227 16.86 67.7307 16.596C68.1387 16.332 68.4507 15.948 68.6667 15.444C68.8947 14.94 69.0087 14.334 69.0087 13.626C69.0087 12.534 68.7627 11.7 68.2707 11.124C67.7907 10.548 67.1367 10.26 66.3087 10.26C65.7567 10.26 65.2767 10.392 64.8687 10.656C64.4727 10.908 64.1607 11.286 63.9327 11.79C63.7167 12.282 63.6087 12.894 63.6087 13.626C63.6087 14.706 63.8547 15.54 64.3467 16.128C64.8387 16.704 65.4927 16.992 66.3087 16.992ZM77.7355 18.126C77.5435 18.126 77.3875 18.084 77.2675 18C77.1595 17.904 77.0935 17.784 77.0695 17.64C77.0575 17.484 77.0935 17.31 77.1775 17.118L82.1275 5.85C82.2355 5.61 82.3615 5.442 82.5055 5.346C82.6615 5.238 82.8295 5.184 83.0095 5.184C83.1895 5.184 83.3515 5.238 83.4955 5.346C83.6515 5.442 83.7775 5.61 83.8735 5.85L88.8415 17.118C88.9375 17.31 88.9735 17.484 88.9495 17.64C88.9375 17.796 88.8775 17.916 88.7695 18C88.6615 18.084 88.5115 18.126 88.3195 18.126C88.1035 18.126 87.9295 18.072 87.7975 17.964C87.6655 17.844 87.5575 17.676 87.4735 17.46L86.1415 14.382L86.8615 14.76H79.1215L79.8595 14.382L78.5455 17.46C78.4375 17.688 78.3235 17.856 78.2035 17.964C78.0835 18.072 77.9275 18.126 77.7355 18.126ZM82.9915 7.038L80.0935 13.86L79.6615 13.518H86.3215L85.9255 13.86L83.0275 7.038H82.9915ZM91.6587 18.126C91.4187 18.126 91.2327 18.06 91.1007 17.928C90.9807 17.796 90.9207 17.61 90.9207 17.37V9.864C90.9207 9.624 90.9807 9.444 91.1007 9.324C91.2207 9.192 91.3947 9.126 91.6227 9.126C91.8507 9.126 92.0247 9.192 92.1447 9.324C92.2767 9.444 92.3427 9.624 92.3427 9.864V11.322H92.1627C92.3547 10.614 92.7207 10.068 93.2607 9.684C93.8007 9.3 94.4667 9.096 95.2587 9.072C95.4387 9.06 95.5827 9.102 95.6907 9.198C95.7987 9.282 95.8587 9.432 95.8707 9.648C95.8827 9.852 95.8347 10.014 95.7267 10.134C95.6187 10.254 95.4507 10.326 95.2227 10.35L94.9347 10.386C94.1187 10.458 93.4887 10.722 93.0447 11.178C92.6127 11.622 92.3967 12.234 92.3967 13.014V17.37C92.3967 17.61 92.3307 17.796 92.1987 17.928C92.0787 18.06 91.8987 18.126 91.6587 18.126ZM98.0919 18.09C97.8519 18.09 97.6719 18.024 97.5519 17.892C97.4319 17.748 97.3719 17.55 97.3719 17.298V9.936C97.3719 9.684 97.4319 9.492 97.5519 9.36C97.6719 9.228 97.8519 9.162 98.0919 9.162C98.3199 9.162 98.4999 9.228 98.6319 9.36C98.7639 9.492 98.8299 9.684 98.8299 9.936V17.298C98.8299 17.55 98.7639 17.748 98.6319 17.892C98.5119 18.024 98.3319 18.09 98.0919 18.09ZM98.0919 7.146C97.7919 7.146 97.5579 7.068 97.3899 6.912C97.2219 6.744 97.1379 6.522 97.1379 6.246C97.1379 5.958 97.2219 5.742 97.3899 5.598C97.5579 5.442 97.7919 5.364 98.0919 5.364C98.4039 5.364 98.6379 5.442 98.7939 5.598C98.9619 5.742 99.0459 5.958 99.0459 6.246C99.0459 6.522 98.9619 6.744 98.7939 6.912C98.6379 7.068 98.4039 7.146 98.0919 7.146ZM104.31 18.162C103.71 18.162 103.17 18.048 102.69 17.82C102.222 17.58 101.85 17.256 101.574 16.848C101.298 16.44 101.16 15.984 101.16 15.48C101.16 14.832 101.322 14.322 101.646 13.95C101.982 13.578 102.528 13.314 103.284 13.158C104.052 13.002 105.096 12.924 106.416 12.924H107.226V13.878H106.434C105.462 13.878 104.694 13.926 104.13 14.022C103.578 14.106 103.188 14.256 102.96 14.472C102.744 14.688 102.636 14.994 102.636 15.39C102.636 15.882 102.804 16.284 103.14 16.596C103.488 16.908 103.956 17.064 104.544 17.064C105.024 17.064 105.444 16.95 105.804 16.722C106.176 16.494 106.464 16.182 106.668 15.786C106.884 15.39 106.992 14.934 106.992 14.418V12.366C106.992 11.622 106.842 11.088 106.542 10.764C106.242 10.428 105.75 10.26 105.066 10.26C104.646 10.26 104.226 10.314 103.806 10.422C103.386 10.53 102.942 10.704 102.474 10.944C102.306 11.028 102.162 11.058 102.042 11.034C101.922 10.998 101.826 10.932 101.754 10.836C101.682 10.74 101.64 10.632 101.628 10.512C101.616 10.38 101.64 10.254 101.7 10.134C101.772 10.014 101.88 9.918 102.024 9.846C102.552 9.582 103.074 9.39 103.59 9.27C104.106 9.15 104.598 9.09 105.066 9.09C105.822 9.09 106.446 9.216 106.938 9.468C107.43 9.708 107.796 10.08 108.036 10.584C108.276 11.076 108.396 11.712 108.396 12.492V17.37C108.396 17.61 108.336 17.796 108.216 17.928C108.108 18.06 107.946 18.126 107.73 18.126C107.502 18.126 107.328 18.06 107.208 17.928C107.088 17.796 107.028 17.61 107.028 17.37V15.966H107.19C107.094 16.422 106.908 16.812 106.632 17.136C106.368 17.46 106.038 17.712 105.642 17.892C105.246 18.072 104.802 18.162 104.31 18.162ZM111.82 18.126C111.58 18.126 111.4 18.06 111.28 17.928C111.16 17.796 111.1 17.61 111.1 17.37V9.864C111.1 9.624 111.16 9.444 111.28 9.324C111.4 9.192 111.574 9.126 111.802 9.126C112.03 9.126 112.204 9.192 112.324 9.324C112.456 9.444 112.522 9.624 112.522 9.864V11.412L112.324 11.196C112.576 10.5 112.984 9.978 113.548 9.63C114.124 9.27 114.784 9.09 115.528 9.09C116.224 9.09 116.8 9.216 117.256 9.468C117.724 9.72 118.072 10.104 118.3 10.62C118.528 11.124 118.642 11.766 118.642 12.546V17.37C118.642 17.61 118.576 17.796 118.444 17.928C118.324 18.06 118.15 18.126 117.922 18.126C117.682 18.126 117.496 18.06 117.364 17.928C117.244 17.796 117.184 17.61 117.184 17.37V12.636C117.184 11.82 117.022 11.226 116.698 10.854C116.386 10.47 115.882 10.278 115.186 10.278C114.382 10.278 113.74 10.53 113.26 11.034C112.792 11.526 112.558 12.186 112.558 13.014V17.37C112.558 17.874 112.312 18.126 111.82 18.126ZM124.283 18.162C123.743 18.162 123.197 18.096 122.645 17.964C122.105 17.832 121.601 17.604 121.133 17.28C121.013 17.196 120.929 17.1 120.881 16.992C120.833 16.872 120.815 16.758 120.827 16.65C120.851 16.53 120.899 16.428 120.971 16.344C121.055 16.26 121.151 16.212 121.259 16.2C121.379 16.176 121.511 16.2 121.655 16.272C122.123 16.56 122.573 16.764 123.005 16.884C123.449 16.992 123.887 17.046 124.319 17.046C125.003 17.046 125.519 16.92 125.867 16.668C126.215 16.416 126.389 16.074 126.389 15.642C126.389 15.306 126.275 15.042 126.047 14.85C125.819 14.646 125.459 14.49 124.967 14.382L123.329 14.022C122.573 13.866 122.009 13.596 121.637 13.212C121.277 12.828 121.097 12.33 121.097 11.718C121.097 11.178 121.235 10.716 121.511 10.332C121.799 9.936 122.201 9.63 122.717 9.414C123.233 9.198 123.833 9.09 124.517 9.09C125.045 9.09 125.543 9.162 126.011 9.306C126.491 9.438 126.923 9.654 127.307 9.954C127.427 10.038 127.505 10.14 127.541 10.26C127.589 10.368 127.595 10.482 127.559 10.602C127.535 10.71 127.481 10.806 127.397 10.89C127.313 10.962 127.211 11.004 127.091 11.016C126.971 11.028 126.845 10.992 126.713 10.908C126.353 10.668 125.987 10.494 125.615 10.386C125.243 10.266 124.877 10.206 124.517 10.206C123.845 10.206 123.335 10.338 122.987 10.602C122.639 10.866 122.465 11.214 122.465 11.646C122.465 11.982 122.573 12.258 122.789 12.474C123.005 12.69 123.341 12.846 123.797 12.942L125.435 13.284C126.215 13.452 126.797 13.722 127.181 14.094C127.577 14.454 127.775 14.946 127.775 15.57C127.775 16.362 127.457 16.992 126.821 17.46C126.185 17.928 125.339 18.162 124.283 18.162ZM131.765 21.366C131.585 21.366 131.441 21.318 131.333 21.222C131.225 21.126 131.159 20.994 131.135 20.826C131.123 20.67 131.153 20.508 131.225 20.34L132.467 17.55V18.18L129.011 10.152C128.939 9.972 128.915 9.804 128.939 9.648C128.963 9.492 129.035 9.366 129.155 9.27C129.275 9.174 129.443 9.126 129.659 9.126C129.851 9.126 130.001 9.168 130.109 9.252C130.217 9.336 130.313 9.486 130.397 9.702L133.349 16.938H132.863L135.851 9.702C135.947 9.486 136.049 9.336 136.157 9.252C136.265 9.168 136.421 9.126 136.625 9.126C136.817 9.126 136.961 9.174 137.057 9.27C137.165 9.366 137.225 9.492 137.237 9.648C137.261 9.792 137.237 9.954 137.165 10.134L132.557 20.79C132.461 21.006 132.353 21.156 132.233 21.24C132.125 21.324 131.969 21.366 131.765 21.366ZM141.645 18.162C141.045 18.162 140.505 18.048 140.025 17.82C139.557 17.58 139.185 17.256 138.909 16.848C138.633 16.44 138.495 15.984 138.495 15.48C138.495 14.832 138.657 14.322 138.981 13.95C139.317 13.578 139.863 13.314 140.619 13.158C141.387 13.002 142.431 12.924 143.751 12.924H144.561V13.878H143.769C142.797 13.878 142.029 13.926 141.465 14.022C140.913 14.106 140.523 14.256 140.295 14.472C140.079 14.688 139.971 14.994 139.971 15.39C139.971 15.882 140.139 16.284 140.475 16.596C140.823 16.908 141.291 17.064 141.879 17.064C142.359 17.064 142.779 16.95 143.139 16.722C143.511 16.494 143.799 16.182 144.003 15.786C144.219 15.39 144.327 14.934 144.327 14.418V12.366C144.327 11.622 144.177 11.088 143.877 10.764C143.577 10.428 143.085 10.26 142.401 10.26C141.981 10.26 141.561 10.314 141.141 10.422C140.721 10.53 140.277 10.704 139.809 10.944C139.641 11.028 139.497 11.058 139.377 11.034C139.257 10.998 139.161 10.932 139.089 10.836C139.017 10.74 138.975 10.632 138.963 10.512C138.951 10.38 138.975 10.254 139.035 10.134C139.107 10.014 139.215 9.918 139.359 9.846C139.887 9.582 140.409 9.39 140.925 9.27C141.441 9.15 141.933 9.09 142.401 9.09C143.157 9.09 143.781 9.216 144.273 9.468C144.765 9.708 145.131 10.08 145.371 10.584C145.611 11.076 145.731 11.712 145.731 12.492V17.37C145.731 17.61 145.671 17.796 145.551 17.928C145.443 18.06 145.281 18.126 145.065 18.126C144.837 18.126 144.663 18.06 144.543 17.928C144.423 17.796 144.363 17.61 144.363 17.37V15.966H144.525C144.429 16.422 144.243 16.812 143.967 17.136C143.703 17.46 143.373 17.712 142.977 17.892C142.581 18.072 142.137 18.162 141.645 18.162ZM149.156 18.126C148.916 18.126 148.736 18.06 148.616 17.928C148.496 17.796 148.436 17.61 148.436 17.37V5.922C148.436 5.682 148.496 5.502 148.616 5.382C148.736 5.25 148.916 5.184 149.156 5.184C149.384 5.184 149.564 5.25 149.696 5.382C149.828 5.502 149.894 5.682 149.894 5.922V11.196H149.66C149.912 10.5 150.32 9.978 150.884 9.63C151.46 9.27 152.12 9.09 152.864 9.09C153.56 9.09 154.136 9.216 154.592 9.468C155.06 9.72 155.408 10.104 155.636 10.62C155.864 11.124 155.978 11.766 155.978 12.546V17.37C155.978 17.61 155.912 17.796 155.78 17.928C155.66 18.06 155.486 18.126 155.258 18.126C155.018 18.126 154.832 18.06 154.7 17.928C154.58 17.796 154.52 17.61 154.52 17.37V12.636C154.52 11.82 154.358 11.226 154.034 10.854C153.722 10.47 153.218 10.278 152.522 10.278C151.718 10.278 151.076 10.53 150.596 11.034C150.128 11.526 149.894 12.186 149.894 13.014V17.37C149.894 17.874 149.648 18.126 149.156 18.126ZM159.531 19.71C159.411 19.866 159.285 19.956 159.153 19.98C159.021 20.004 158.907 19.98 158.811 19.908C158.715 19.836 158.661 19.734 158.649 19.602C158.649 19.47 158.709 19.326 158.829 19.17C159.021 18.918 159.153 18.66 159.225 18.396C159.297 18.144 159.333 17.91 159.333 17.694L159.405 18.072C159.093 18.072 158.841 17.982 158.649 17.802C158.469 17.61 158.379 17.37 158.379 17.082C158.379 16.794 158.463 16.56 158.631 16.38C158.811 16.188 159.045 16.092 159.333 16.092C159.645 16.092 159.891 16.2 160.071 16.416C160.251 16.62 160.341 16.92 160.341 17.316C160.341 17.568 160.317 17.826 160.269 18.09C160.221 18.366 160.137 18.642 160.017 18.918C159.897 19.194 159.735 19.458 159.531 19.71ZM171.705 18.162C171.141 18.162 170.589 18.114 170.049 18.018C169.509 17.922 169.005 17.784 168.537 17.604C168.081 17.424 167.667 17.196 167.295 16.92C167.151 16.812 167.049 16.692 166.989 16.56C166.941 16.416 166.929 16.278 166.953 16.146C166.989 16.002 167.049 15.882 167.133 15.786C167.229 15.69 167.343 15.636 167.475 15.624C167.607 15.612 167.751 15.654 167.907 15.75C168.447 16.134 169.023 16.416 169.635 16.596C170.247 16.764 170.937 16.848 171.705 16.848C172.785 16.848 173.583 16.65 174.099 16.254C174.627 15.846 174.891 15.312 174.891 14.652C174.891 14.112 174.699 13.692 174.315 13.392C173.943 13.08 173.313 12.834 172.425 12.654L170.553 12.276C169.425 12.036 168.579 11.646 168.015 11.106C167.463 10.554 167.187 9.822 167.187 8.91C167.187 8.346 167.301 7.836 167.529 7.38C167.757 6.912 168.075 6.516 168.483 6.192C168.891 5.856 169.377 5.598 169.941 5.418C170.505 5.238 171.129 5.148 171.813 5.148C172.569 5.148 173.271 5.256 173.919 5.472C174.579 5.676 175.173 5.988 175.701 6.408C175.833 6.516 175.923 6.642 175.971 6.786C176.019 6.918 176.025 7.05 175.989 7.182C175.953 7.302 175.887 7.404 175.791 7.488C175.707 7.572 175.593 7.62 175.449 7.632C175.317 7.644 175.167 7.596 174.999 7.488C174.519 7.128 174.021 6.87 173.505 6.714C172.989 6.546 172.419 6.462 171.795 6.462C171.159 6.462 170.607 6.558 170.139 6.75C169.683 6.942 169.323 7.224 169.059 7.596C168.807 7.956 168.681 8.376 168.681 8.856C168.681 9.432 168.855 9.888 169.203 10.224C169.563 10.56 170.145 10.806 170.949 10.962L172.821 11.358C174.033 11.61 174.927 11.994 175.503 12.51C176.091 13.014 176.385 13.704 176.385 14.58C176.385 15.108 176.277 15.594 176.061 16.038C175.845 16.482 175.533 16.866 175.125 17.19C174.717 17.502 174.225 17.742 173.649 17.91C173.073 18.078 172.425 18.162 171.705 18.162ZM179.004 18.072C178.704 18.072 178.464 17.982 178.284 17.802C178.104 17.61 178.014 17.37 178.014 17.082C178.014 16.794 178.104 16.56 178.284 16.38C178.464 16.188 178.704 16.092 179.004 16.092C179.304 16.092 179.538 16.188 179.706 16.38C179.886 16.56 179.976 16.794 179.976 17.082C179.976 17.37 179.886 17.61 179.706 17.802C179.538 17.982 179.304 18.072 179.004 18.072ZM187.974 18.126C187.734 18.126 187.548 18.06 187.416 17.928C187.296 17.784 187.236 17.592 187.236 17.352V6.066C187.236 5.814 187.302 5.628 187.434 5.508C187.566 5.376 187.752 5.31 187.992 5.31H192.258C193.614 5.31 194.658 5.646 195.39 6.318C196.122 6.978 196.488 7.914 196.488 9.126C196.488 10.326 196.122 11.262 195.39 11.934C194.658 12.606 193.614 12.942 192.258 12.942H188.712V17.352C188.712 17.592 188.652 17.784 188.532 17.928C188.412 18.06 188.226 18.126 187.974 18.126ZM188.712 11.7H192.078C193.05 11.7 193.782 11.484 194.274 11.052C194.778 10.608 195.03 9.966 195.03 9.126C195.03 8.274 194.778 7.632 194.274 7.2C193.782 6.756 193.05 6.534 192.078 6.534H188.712V11.7ZM201.372 18.162C200.592 18.162 199.908 17.976 199.32 17.604C198.744 17.232 198.294 16.71 197.97 16.038C197.658 15.354 197.502 14.55 197.502 13.626C197.502 12.69 197.658 11.886 197.97 11.214C198.294 10.53 198.744 10.008 199.32 9.648C199.908 9.276 200.592 9.09 201.372 9.09C202.164 9.09 202.842 9.288 203.406 9.684C203.97 10.08 204.348 10.614 204.54 11.286H204.342V5.922C204.342 5.682 204.402 5.502 204.522 5.382C204.654 5.25 204.84 5.184 205.08 5.184C205.308 5.184 205.482 5.25 205.602 5.382C205.734 5.502 205.8 5.682 205.8 5.922V17.37C205.8 17.61 205.74 17.796 205.62 17.928C205.5 18.06 205.32 18.126 205.08 18.126C204.852 18.126 204.672 18.06 204.54 17.928C204.42 17.796 204.36 17.61 204.36 17.37V15.66L204.558 15.912C204.366 16.596 203.982 17.142 203.406 17.55C202.842 17.958 202.164 18.162 201.372 18.162ZM201.678 16.992C202.218 16.992 202.692 16.86 203.1 16.596C203.508 16.332 203.82 15.948 204.036 15.444C204.264 14.94 204.378 14.334 204.378 13.626C204.378 12.534 204.132 11.7 203.64 11.124C203.16 10.548 202.506 10.26 201.678 10.26C201.126 10.26 200.646 10.392 200.238 10.656C199.842 10.908 199.53 11.286 199.302 11.79C199.086 12.282 198.978 12.894 198.978 13.626C198.978 14.706 199.224 15.54 199.716 16.128C200.208 16.704 200.862 16.992 201.678 16.992Z" fill="white"/>
<path d="M40 44.18C38.3867 44.18 37.16 43.56 36.32 42.32C35.48 41.08 35.06 39.2867 35.06 36.94C35.06 34.58 35.48 32.7867 36.32 31.56C37.16 30.3333 38.3867 29.72 40 29.72C41.6267 29.72 42.8533 30.3333 43.68 31.56C44.52 32.7733 44.94 34.56 44.94 36.92C44.94 39.28 44.5133 41.08 43.66 42.32C42.82 43.56 41.6 44.18 40 44.18ZM40 42.76C41.12 42.76 41.9467 42.2867 42.48 41.34C43.0267 40.3933 43.3 38.92 43.3 36.92C43.3 34.92 43.0333 33.46 42.5 32.54C41.9667 31.6067 41.1333 31.14 40 31.14C38.88 31.14 38.0467 31.6067 37.5 32.54C36.9667 33.4733 36.7 34.9333 36.7 36.92C36.7 38.92 36.9667 40.3933 37.5 41.34C38.0467 42.2867 38.88 42.76 40 42.76ZM51.9922 44.18C50.4055 44.18 49.1722 43.84 48.2922 43.16C47.4122 42.4667 46.9722 41.5 46.9722 40.26C46.9722 39.3933 47.2055 38.6533 47.6722 38.04C48.1522 37.4267 48.7855 37.0067 49.5722 36.78C48.8655 36.5133 48.3122 36.0867 47.9122 35.5C47.5122 34.9133 47.3122 34.24 47.3122 33.48C47.3122 32.2933 47.7322 31.3733 48.5722 30.72C49.4255 30.0533 50.5655 29.72 51.9922 29.72C53.4189 29.72 54.5589 30.0533 55.4122 30.72C56.2655 31.3733 56.6922 32.2933 56.6922 33.48C56.6922 34.24 56.4855 34.92 56.0722 35.52C55.6722 36.1067 55.1255 36.5267 54.4322 36.78C55.2189 37.0067 55.8455 37.4267 56.3122 38.04C56.7789 38.6533 57.0122 39.3933 57.0122 40.26C57.0122 41.5 56.5722 42.4667 55.6922 43.16C54.8122 43.84 53.5789 44.18 51.9922 44.18ZM51.9922 36.18C52.9655 36.18 53.7255 35.9533 54.2722 35.5C54.8322 35.0333 55.1122 34.4067 55.1122 33.62C55.1122 32.82 54.8322 32.2 54.2722 31.76C53.7255 31.3067 52.9655 31.08 51.9922 31.08C51.0189 31.08 50.2589 31.3067 49.7122 31.76C49.1655 32.2 48.8922 32.82 48.8922 33.62C48.8922 34.4067 49.1655 35.0333 49.7122 35.5C50.2589 35.9533 51.0189 36.18 51.9922 36.18ZM51.9922 42.82C54.2855 42.82 55.4322 41.9333 55.4322 40.16C55.4322 38.4133 54.2855 37.54 51.9922 37.54C49.6989 37.54 48.5522 38.4133 48.5522 40.16C48.5522 41.9333 49.6989 42.82 51.9922 42.82ZM64.2844 44.18C63.3777 44.18 62.511 44.0333 61.6844 43.74C60.8577 43.4467 60.1577 43.0333 59.5844 42.5L60.2044 41.2C61.4444 42.2133 62.7977 42.72 64.2644 42.72C65.2377 42.72 66.0044 42.4467 66.5644 41.9C67.1244 41.3533 67.4044 40.6333 67.4044 39.74C67.4044 38.82 67.1377 38.0667 66.6044 37.48C66.071 36.8933 65.3377 36.6 64.4044 36.6C63.0577 36.6 61.9977 37.16 61.2244 38.28H60.0244V29.9H68.2044V31.3H61.6444V36.34C62.4177 35.5667 63.4377 35.18 64.7044 35.18C65.5844 35.18 66.351 35.3667 67.0044 35.74C67.6577 36.1133 68.1577 36.64 68.5044 37.32C68.8644 37.9867 69.0444 38.7667 69.0444 39.66C69.0444 40.54 68.851 41.32 68.4644 42C68.0777 42.68 67.5244 43.2133 66.8044 43.6C66.0977 43.9867 65.2577 44.18 64.2844 44.18ZM71.7766 44V42.76L76.5966 37.56C77.2766 36.8133 77.7632 36.1333 78.0566 35.52C78.3632 34.9067 78.5166 34.28 78.5166 33.64C78.5166 32 77.5632 31.18 75.6566 31.18C74.2299 31.18 72.9699 31.7133 71.8766 32.78L71.2566 31.5C71.7766 30.9667 72.4366 30.54 73.2366 30.22C74.0499 29.8867 74.9032 29.72 75.7966 29.72C77.2099 29.72 78.2899 30.0533 79.0366 30.72C79.7966 31.3733 80.1766 32.3067 80.1766 33.52C80.1766 34.36 79.9699 35.1867 79.5566 36C79.1432 36.8 78.5099 37.6533 77.6566 38.56L73.8766 42.6H80.7566V44H71.7766ZM88.2688 44.18C87.3621 44.18 86.4954 44.0333 85.6688 43.74C84.8421 43.4467 84.1421 43.0333 83.5688 42.5L84.1888 41.2C85.4288 42.2133 86.7821 42.72 88.2488 42.72C89.2221 42.72 89.9888 42.4467 90.5488 41.9C91.1088 41.3533 91.3888 40.6333 91.3888 39.74C91.3888 38.82 91.1221 38.0667 90.5888 37.48C90.0554 36.8933 89.3221 36.6 88.3888 36.6C87.0421 36.6 85.9821 37.16 85.2088 38.28H84.0088V29.9H92.1888V31.3H85.6288V36.34C86.4021 35.5667 87.4221 35.18 88.6888 35.18C89.5688 35.18 90.3354 35.3667 90.9888 35.74C91.6421 36.1133 92.1421 36.64 92.4888 37.32C92.8488 37.9867 93.0288 38.7667 93.0288 39.66C93.0288 40.54 92.8354 41.32 92.4488 42C92.0621 42.68 91.5088 43.2133 90.7888 43.6C90.0821 43.9867 89.2421 44.18 88.2688 44.18ZM100.441 44.18C98.7743 44.18 97.4876 43.58 96.5809 42.38C95.6876 41.1667 95.2409 39.4733 95.2409 37.3C95.2409 34.86 95.7409 32.9867 96.7409 31.68C97.7409 30.3733 99.1409 29.72 100.941 29.72C101.661 29.72 102.381 29.8733 103.101 30.18C103.834 30.4867 104.434 30.9 104.901 31.42L104.301 32.7C103.808 32.1933 103.268 31.8133 102.681 31.56C102.108 31.3067 101.514 31.18 100.901 31.18C99.5943 31.18 98.5876 31.6667 97.8809 32.64C97.1876 33.6133 96.8409 35.06 96.8409 36.98V37.96C97.0943 37.08 97.5609 36.3933 98.2409 35.9C98.9343 35.4067 99.7476 35.16 100.681 35.16C101.508 35.16 102.241 35.3533 102.881 35.74C103.521 36.1133 104.021 36.6333 104.381 37.3C104.741 37.9667 104.921 38.7333 104.921 39.6C104.921 40.4933 104.728 41.2867 104.341 41.98C103.968 42.66 103.441 43.2 102.761 43.6C102.094 43.9867 101.321 44.18 100.441 44.18ZM100.341 42.78C101.234 42.78 101.954 42.4933 102.501 41.92C103.061 41.3467 103.341 40.5933 103.341 39.66C103.341 38.74 103.061 37.9933 102.501 37.42C101.954 36.8333 101.234 36.54 100.341 36.54C99.4476 36.54 98.7209 36.8333 98.1609 37.42C97.6143 37.9933 97.3409 38.74 97.3409 39.66C97.3409 40.5933 97.6143 41.3467 98.1609 41.92C98.7209 42.4933 99.4476 42.78 100.341 42.78ZM112.433 44.18C110.766 44.18 109.48 43.58 108.573 42.38C107.68 41.1667 107.233 39.4733 107.233 37.3C107.233 34.86 107.733 32.9867 108.733 31.68C109.733 30.3733 111.133 29.72 112.933 29.72C113.653 29.72 114.373 29.8733 115.093 30.18C115.826 30.4867 116.426 30.9 116.893 31.42L116.293 32.7C115.8 32.1933 115.26 31.8133 114.673 31.56C114.1 31.3067 113.506 31.18 112.893 31.18C111.586 31.18 110.58 31.6667 109.873 32.64C109.18 33.6133 108.833 35.06 108.833 36.98V37.96C109.086 37.08 109.553 36.3933 110.233 35.9C110.926 35.4067 111.74 35.16 112.673 35.16C113.5 35.16 114.233 35.3533 114.873 35.74C115.513 36.1133 116.013 36.6333 116.373 37.3C116.733 37.9667 116.913 38.7333 116.913 39.6C116.913 40.4933 116.72 41.2867 116.333 41.98C115.96 42.66 115.433 43.2 114.753 43.6C114.086 43.9867 113.313 44.18 112.433 44.18ZM112.333 42.78C113.226 42.78 113.946 42.4933 114.493 41.92C115.053 41.3467 115.333 40.5933 115.333 39.66C115.333 38.74 115.053 37.9933 114.493 37.42C113.946 36.8333 113.226 36.54 112.333 36.54C111.44 36.54 110.713 36.8333 110.153 37.42C109.606 37.9933 109.333 38.74 109.333 39.66C109.333 40.5933 109.606 41.3467 110.153 41.92C110.713 42.4933 111.44 42.78 112.333 42.78ZM120.425 44V42.6H123.645V31.88L121.105 33.48L120.405 32.26L124.105 29.9H125.285V42.6H128.305V44H120.425ZM132.178 44L138.738 31.32H131.278V29.9H140.598V31.14L133.998 44H132.178ZM148.41 44.18C146.743 44.18 145.456 43.58 144.55 42.38C143.656 41.1667 143.21 39.4733 143.21 37.3C143.21 34.86 143.71 32.9867 144.71 31.68C145.71 30.3733 147.11 29.72 148.91 29.72C149.63 29.72 150.35 29.8733 151.07 30.18C151.803 30.4867 152.403 30.9 152.87 31.42L152.27 32.7C151.776 32.1933 151.236 31.8133 150.65 31.56C150.076 31.3067 149.483 31.18 148.87 31.18C147.563 31.18 146.556 31.6667 145.85 32.64C145.156 33.6133 144.81 35.06 144.81 36.98V37.96C145.063 37.08 145.53 36.3933 146.21 35.9C146.903 35.4067 147.716 35.16 148.65 35.16C149.476 35.16 150.21 35.3533 150.85 35.74C151.49 36.1133 151.99 36.6333 152.35 37.3C152.71 37.9667 152.89 38.7333 152.89 39.6C152.89 40.4933 152.696 41.2867 152.31 41.98C151.936 42.66 151.41 43.2 150.73 43.6C150.063 43.9867 149.29 44.18 148.41 44.18ZM148.31 42.78C149.203 42.78 149.923 42.4933 150.47 41.92C151.03 41.3467 151.31 40.5933 151.31 39.66C151.31 38.74 151.03 37.9933 150.47 37.42C149.923 36.8333 149.203 36.54 148.31 36.54C147.416 36.54 146.69 36.8333 146.13 37.42C145.583 37.9933 145.31 38.74 145.31 39.66C145.31 40.5933 145.583 41.3467 146.13 41.92C146.69 42.4933 147.416 42.78 148.31 42.78ZM160.402 44.18C158.735 44.18 157.449 43.58 156.542 42.38C155.649 41.1667 155.202 39.4733 155.202 37.3C155.202 34.86 155.702 32.9867 156.702 31.68C157.702 30.3733 159.102 29.72 160.902 29.72C161.622 29.72 162.342 29.8733 163.062 30.18C163.795 30.4867 164.395 30.9 164.862 31.42L164.262 32.7C163.769 32.1933 163.229 31.8133 162.642 31.56C162.069 31.3067 161.475 31.18 160.862 31.18C159.555 31.18 158.549 31.6667 157.842 32.64C157.149 33.6133 156.802 35.06 156.802 36.98V37.96C157.055 37.08 157.522 36.3933 158.202 35.9C158.895 35.4067 159.709 35.16 160.642 35.16C161.469 35.16 162.202 35.3533 162.842 35.74C163.482 36.1133 163.982 36.6333 164.342 37.3C164.702 37.9667 164.882 38.7333 164.882 39.6C164.882 40.4933 164.689 41.2867 164.302 41.98C163.929 42.66 163.402 43.2 162.722 43.6C162.055 43.9867 161.282 44.18 160.402 44.18ZM160.302 42.78C161.195 42.78 161.915 42.4933 162.462 41.92C163.022 41.3467 163.302 40.5933 163.302 39.66C163.302 38.74 163.022 37.9933 162.462 37.42C161.915 36.8333 161.195 36.54 160.302 36.54C159.409 36.54 158.682 36.8333 158.122 37.42C157.575 37.9933 157.302 38.74 157.302 39.66C157.302 40.5933 157.575 41.3467 158.122 41.92C158.682 42.4933 159.409 42.78 160.302 42.78ZM168.394 44V42.6H171.614V31.88L169.074 33.48L168.374 32.26L172.074 29.9H173.254V42.6H176.274V44H168.394Z" fill="black"/>
</svg>
