<svg width="259" height="50" viewBox="0 0 259 50" fill="none" xmlns="http://www.w3.org/2000/svg">
<rect width="223" height="50" rx="3" fill="white"/>
<rect width="223" height="24" rx="3" fill="#205280"/>
<path d="M23.5575 18.119C23.3308 18.119 23.1551 18.0567 23.0305 17.932C22.9171 17.796 22.8605 17.6147 22.8605 17.388V6.729C22.8605 6.491 22.9228 6.31533 23.0475 6.202C23.1721 6.07733 23.3478 6.015 23.5745 6.015H27.6035C28.8841 6.015 29.8701 6.31533 30.5615 6.916C31.2528 7.51667 31.5985 8.37233 31.5985 9.483C31.5985 10.1857 31.4398 10.7977 31.1225 11.319C30.8165 11.829 30.3631 12.22 29.7625 12.492C29.1618 12.7527 28.4421 12.883 27.6035 12.883L27.7735 12.662H28.1135C28.5555 12.662 28.9408 12.7753 29.2695 13.002C29.5981 13.2287 29.8985 13.5913 30.1705 14.09L31.8025 17.133C31.8931 17.2917 31.9328 17.4503 31.9215 17.609C31.9215 17.7563 31.8705 17.881 31.7685 17.983C31.6665 18.0737 31.5191 18.119 31.3265 18.119C31.1338 18.119 30.9751 18.0737 30.8505 17.983C30.7258 17.8923 30.6181 17.762 30.5275 17.592L28.6745 14.158C28.4138 13.6707 28.1135 13.3477 27.7735 13.189C27.4335 13.019 26.9858 12.934 26.4305 12.934H24.2545V17.388C24.2545 17.6147 24.1978 17.796 24.0845 17.932C23.9711 18.0567 23.7955 18.119 23.5575 18.119ZM24.2545 11.829H27.3995C28.3288 11.829 29.0315 11.6363 29.5075 11.251C29.9835 10.8543 30.2215 10.265 30.2215 9.483C30.2215 8.72367 29.9835 8.15133 29.5075 7.766C29.0315 7.36933 28.3288 7.171 27.3995 7.171H24.2545V11.829ZM34.7255 18.085C34.4989 18.085 34.3289 18.0227 34.2155 17.898C34.1022 17.762 34.0455 17.575 34.0455 17.337V10.384C34.0455 10.146 34.1022 9.96467 34.2155 9.84C34.3289 9.71533 34.4989 9.653 34.7255 9.653C34.9409 9.653 35.1109 9.71533 35.2355 9.84C35.3602 9.96467 35.4225 10.146 35.4225 10.384V17.337C35.4225 17.575 35.3602 17.762 35.2355 17.898C35.1222 18.0227 34.9522 18.085 34.7255 18.085ZM34.7255 7.749C34.4422 7.749 34.2212 7.67533 34.0625 7.528C33.9039 7.36933 33.8245 7.15967 33.8245 6.899C33.8245 6.627 33.9039 6.423 34.0625 6.287C34.2212 6.13967 34.4422 6.066 34.7255 6.066C35.0202 6.066 35.2412 6.13967 35.3885 6.287C35.5472 6.423 35.6265 6.627 35.6265 6.899C35.6265 7.15967 35.5472 7.36933 35.3885 7.528C35.2412 7.67533 35.0202 7.749 34.7255 7.749ZM38.1497 18C38.0024 18 37.8834 17.966 37.7927 17.898C37.702 17.83 37.6397 17.7393 37.6057 17.626C37.5717 17.5127 37.5717 17.388 37.6057 17.252C37.6397 17.116 37.7134 16.9857 37.8267 16.861L42.6207 10.452V10.809H38.0817C37.9004 10.809 37.7587 10.7637 37.6567 10.673C37.566 10.571 37.5207 10.435 37.5207 10.265C37.5207 10.095 37.566 9.96467 37.6567 9.874C37.7587 9.78333 37.9004 9.738 38.0817 9.738H43.3007C43.4707 9.738 43.6067 9.772 43.7087 9.84C43.822 9.908 43.8957 9.99867 43.9297 10.112C43.9637 10.214 43.9637 10.333 43.9297 10.469C43.907 10.5937 43.8447 10.7183 43.7427 10.843L38.8637 17.32V16.929H43.6407C44.0147 16.929 44.2017 17.1047 44.2017 17.456C44.2017 17.626 44.1507 17.762 44.0487 17.864C43.958 17.9547 43.822 18 43.6407 18H38.1497ZM46.5459 18.119C46.3192 18.119 46.1492 18.0567 46.0359 17.932C45.9225 17.8073 45.8659 17.6317 45.8659 17.405V6.593C45.8659 6.36633 45.9225 6.19633 46.0359 6.083C46.1492 5.95833 46.3192 5.896 46.5459 5.896C46.7612 5.896 46.9312 5.95833 47.0559 6.083C47.1805 6.19633 47.2429 6.36633 47.2429 6.593V13.41H47.2769L50.7619 10.078C50.9205 9.93067 51.0565 9.81733 51.1699 9.738C51.2945 9.65867 51.4589 9.619 51.6629 9.619C51.8442 9.619 51.9859 9.67 52.0879 9.772C52.1899 9.86267 52.2352 9.98167 52.2239 10.129C52.2239 10.265 52.1559 10.4123 52.0199 10.571L48.3139 14.09V13.342L52.3429 17.133C52.5015 17.2917 52.5809 17.4447 52.5809 17.592C52.5809 17.7393 52.5242 17.864 52.4109 17.966C52.3089 18.068 52.1729 18.119 52.0029 18.119C51.7989 18.119 51.6345 18.0793 51.5099 18C51.3852 17.9093 51.2322 17.779 51.0509 17.609L47.2769 14.124H47.2429V17.405C47.2429 17.881 47.0105 18.119 46.5459 18.119ZM55.9362 21.179C55.7662 21.179 55.6302 21.1337 55.5282 21.043C55.4262 20.9523 55.3639 20.8277 55.3412 20.669C55.3299 20.5217 55.3582 20.3687 55.4262 20.21L56.5992 17.575V18.17L53.3352 10.588C53.2672 10.418 53.2446 10.2593 53.2672 10.112C53.2899 9.96467 53.3579 9.84567 53.4712 9.755C53.5846 9.66433 53.7432 9.619 53.9472 9.619C54.1286 9.619 54.2702 9.65867 54.3722 9.738C54.4742 9.81733 54.5649 9.959 54.6442 10.163L57.4322 16.997H56.9732L59.7952 10.163C59.8859 9.959 59.9822 9.81733 60.0842 9.738C60.1862 9.65867 60.3336 9.619 60.5262 9.619C60.7076 9.619 60.8436 9.66433 60.9342 9.755C61.0362 9.84567 61.0929 9.96467 61.1042 10.112C61.1269 10.248 61.1042 10.401 61.0362 10.571L56.6842 20.635C56.5936 20.839 56.4916 20.9807 56.3782 21.06C56.2762 21.1393 56.1289 21.179 55.9362 21.179ZM68.0825 18.119C67.8785 18.119 67.7198 18.0623 67.6065 17.949C67.4931 17.8243 67.4365 17.6543 67.4365 17.439V6.576C67.4365 6.34933 67.4931 6.17933 67.6065 6.066C67.7198 5.95267 67.8785 5.896 68.0825 5.896C68.2638 5.896 68.4055 5.93567 68.5075 6.015C68.6208 6.083 68.7228 6.202 68.8135 6.372L73.4715 15.144H72.9615L77.6025 6.372C77.6931 6.202 77.7895 6.083 77.8915 6.015C77.9935 5.93567 78.1408 5.896 78.3335 5.896C78.5261 5.896 78.6791 5.95267 78.7925 6.066C78.9058 6.17933 78.9625 6.34933 78.9625 6.576V17.439C78.9625 17.6543 78.9058 17.8243 78.7925 17.949C78.6905 18.0623 78.5318 18.119 78.3165 18.119C78.1125 18.119 77.9538 18.0623 77.8405 17.949C77.7271 17.8243 77.6705 17.6543 77.6705 17.439V7.885H78.0785L73.8285 15.858C73.7491 16.0053 73.6641 16.113 73.5735 16.181C73.4941 16.2377 73.3751 16.266 73.2165 16.266C73.0578 16.266 72.9331 16.232 72.8425 16.164C72.7518 16.096 72.6725 15.994 72.6045 15.858L68.3035 7.868H68.7115V17.439C68.7115 17.6543 68.6548 17.8243 68.5415 17.949C68.4395 18.0623 68.2865 18.119 68.0825 18.119ZM84.3594 18.153C83.7928 18.153 83.2828 18.0453 82.8294 17.83C82.3874 17.6033 82.0361 17.2973 81.7754 16.912C81.5148 16.5267 81.3844 16.096 81.3844 15.62C81.3844 15.008 81.5374 14.5263 81.8434 14.175C82.1608 13.8237 82.6764 13.5743 83.3904 13.427C84.1158 13.2797 85.1018 13.206 86.3484 13.206H87.1134V14.107H86.3654C85.4474 14.107 84.7221 14.1523 84.1894 14.243C83.6681 14.3223 83.2998 14.464 83.0844 14.668C82.8804 14.872 82.7784 15.161 82.7784 15.535C82.7784 15.9997 82.9371 16.3793 83.2544 16.674C83.5831 16.9687 84.0251 17.116 84.5804 17.116C85.0338 17.116 85.4304 17.0083 85.7704 16.793C86.1218 16.5777 86.3938 16.283 86.5864 15.909C86.7904 15.535 86.8924 15.1043 86.8924 14.617V12.679C86.8924 11.9763 86.7508 11.472 86.4674 11.166C86.1841 10.8487 85.7194 10.69 85.0734 10.69C84.6768 10.69 84.2801 10.741 83.8834 10.843C83.4868 10.945 83.0674 11.1093 82.6254 11.336C82.4668 11.4153 82.3308 11.4437 82.2174 11.421C82.1041 11.387 82.0134 11.3247 81.9454 11.234C81.8774 11.1433 81.8378 11.0413 81.8264 10.928C81.8151 10.8033 81.8378 10.6843 81.8944 10.571C81.9624 10.4577 82.0644 10.367 82.2004 10.299C82.6991 10.0497 83.1921 9.86833 83.6794 9.755C84.1668 9.64167 84.6314 9.585 85.0734 9.585C85.7874 9.585 86.3768 9.704 86.8414 9.942C87.3061 10.1687 87.6518 10.52 87.8784 10.996C88.1051 11.4607 88.2184 12.0613 88.2184 12.798V17.405C88.2184 17.6317 88.1618 17.8073 88.0484 17.932C87.9464 18.0567 87.7934 18.119 87.5894 18.119C87.3741 18.119 87.2098 18.0567 87.0964 17.932C86.9831 17.8073 86.9264 17.6317 86.9264 17.405V16.079H87.0794C86.9888 16.5097 86.8131 16.878 86.5524 17.184C86.3031 17.49 85.9914 17.728 85.6174 17.898C85.2434 18.068 84.8241 18.153 84.3594 18.153ZM91.4701 18.119C91.2434 18.119 91.0677 18.0567 90.9431 17.932C90.8297 17.8073 90.7731 17.6317 90.7731 17.405V10.316C90.7731 10.0893 90.8297 9.91933 90.9431 9.806C91.0564 9.68133 91.2207 9.619 91.4361 9.619C91.6514 9.619 91.8157 9.68133 91.9291 9.806C92.0537 9.91933 92.1161 10.0893 92.1161 10.316V11.693H91.9461C92.1274 11.0243 92.4731 10.5087 92.9831 10.146C93.4931 9.78333 94.1221 9.59067 94.8701 9.568C95.0401 9.55667 95.1761 9.59633 95.2781 9.687C95.3801 9.76633 95.4367 9.908 95.4481 10.112C95.4594 10.3047 95.4141 10.4577 95.3121 10.571C95.2101 10.6843 95.0514 10.7523 94.8361 10.775L94.5641 10.809C93.7934 10.877 93.1984 11.1263 92.7791 11.557C92.3711 11.9763 92.1671 12.5543 92.1671 13.291V17.405C92.1671 17.6317 92.1047 17.8073 91.9801 17.932C91.8667 18.0567 91.6967 18.119 91.4701 18.119ZM99.9112 18.153C99.1746 18.153 98.5286 17.9773 97.9732 17.626C97.4292 17.2747 97.0042 16.7817 96.6982 16.147C96.4036 15.501 96.2562 14.7417 96.2562 13.869C96.2562 12.985 96.4036 12.2257 96.6982 11.591C97.0042 10.945 97.4292 10.452 97.9732 10.112C98.5286 9.76067 99.1746 9.585 99.9112 9.585C100.659 9.585 101.3 9.772 101.832 10.146C102.365 10.52 102.722 11.0243 102.903 11.659H102.716V6.593C102.716 6.36633 102.773 6.19633 102.886 6.083C103.011 5.95833 103.187 5.896 103.413 5.896C103.629 5.896 103.793 5.95833 103.906 6.083C104.031 6.19633 104.093 6.36633 104.093 6.593V17.405C104.093 17.6317 104.037 17.8073 103.923 17.932C103.81 18.0567 103.64 18.119 103.413 18.119C103.198 18.119 103.028 18.0567 102.903 17.932C102.79 17.8073 102.733 17.6317 102.733 17.405V15.79L102.92 16.028C102.739 16.674 102.376 17.1897 101.832 17.575C101.3 17.9603 100.659 18.153 99.9112 18.153ZM100.2 17.048C100.71 17.048 101.158 16.9233 101.543 16.674C101.929 16.4247 102.223 16.062 102.427 15.586C102.643 15.11 102.75 14.5377 102.75 13.869C102.75 12.8377 102.518 12.05 102.053 11.506C101.6 10.962 100.982 10.69 100.2 10.69C99.6789 10.69 99.2256 10.8147 98.8402 11.064C98.4662 11.302 98.1716 11.659 97.9562 12.135C97.7522 12.5997 97.6502 13.1777 97.6502 13.869C97.6502 14.889 97.8826 15.6767 98.3472 16.232C98.8119 16.776 99.4296 17.048 100.2 17.048ZM107.357 18.085C107.131 18.085 106.961 18.0227 106.847 17.898C106.734 17.762 106.677 17.575 106.677 17.337V10.384C106.677 10.146 106.734 9.96467 106.847 9.84C106.961 9.71533 107.131 9.653 107.357 9.653C107.573 9.653 107.743 9.71533 107.867 9.84C107.992 9.96467 108.054 10.146 108.054 10.384V17.337C108.054 17.575 107.992 17.762 107.867 17.898C107.754 18.0227 107.584 18.085 107.357 18.085ZM107.357 7.749C107.074 7.749 106.853 7.67533 106.694 7.528C106.536 7.36933 106.456 7.15967 106.456 6.899C106.456 6.627 106.536 6.423 106.694 6.287C106.853 6.13967 107.074 6.066 107.357 6.066C107.652 6.066 107.873 6.13967 108.02 6.287C108.179 6.423 108.258 6.627 108.258 6.899C108.258 7.15967 108.179 7.36933 108.02 7.528C107.873 7.67533 107.652 7.749 107.357 7.749ZM113.23 18.153C112.663 18.153 112.153 18.0453 111.7 17.83C111.258 17.6033 110.906 17.2973 110.646 16.912C110.385 16.5267 110.255 16.096 110.255 15.62C110.255 15.008 110.408 14.5263 110.714 14.175C111.031 13.8237 111.547 13.5743 112.261 13.427C112.986 13.2797 113.972 13.206 115.219 13.206H115.984V14.107H115.236C114.318 14.107 113.592 14.1523 113.06 14.243C112.538 14.3223 112.17 14.464 111.955 14.668C111.751 14.872 111.649 15.161 111.649 15.535C111.649 15.9997 111.807 16.3793 112.125 16.674C112.453 16.9687 112.895 17.116 113.451 17.116C113.904 17.116 114.301 17.0083 114.641 16.793C114.992 16.5777 115.264 16.283 115.457 15.909C115.661 15.535 115.763 15.1043 115.763 14.617V12.679C115.763 11.9763 115.621 11.472 115.338 11.166C115.054 10.8487 114.59 10.69 113.944 10.69C113.547 10.69 113.15 10.741 112.754 10.843C112.357 10.945 111.938 11.1093 111.496 11.336C111.337 11.4153 111.201 11.4437 111.088 11.421C110.974 11.387 110.884 11.3247 110.816 11.234C110.748 11.1433 110.708 11.0413 110.697 10.928C110.685 10.8033 110.708 10.6843 110.765 10.571C110.833 10.4577 110.935 10.367 111.071 10.299C111.569 10.0497 112.062 9.86833 112.55 9.755C113.037 9.64167 113.502 9.585 113.944 9.585C114.658 9.585 115.247 9.704 115.712 9.942C116.176 10.1687 116.522 10.52 116.749 10.996C116.975 11.4607 117.089 12.0613 117.089 12.798V17.405C117.089 17.6317 117.032 17.8073 116.919 17.932C116.817 18.0567 116.664 18.119 116.46 18.119C116.244 18.119 116.08 18.0567 115.967 17.932C115.853 17.8073 115.797 17.6317 115.797 17.405V16.079H115.95C115.859 16.5097 115.683 16.878 115.423 17.184C115.173 17.49 114.862 17.728 114.488 17.898C114.114 18.068 113.694 18.153 113.23 18.153ZM120.323 18.119C120.097 18.119 119.927 18.0567 119.813 17.932C119.7 17.8073 119.643 17.6317 119.643 17.405V10.316C119.643 10.0893 119.7 9.91933 119.813 9.806C119.927 9.68133 120.091 9.619 120.306 9.619C120.522 9.619 120.686 9.68133 120.799 9.806C120.924 9.91933 120.986 10.0893 120.986 10.316V11.778L120.799 11.574C121.037 10.9167 121.423 10.4237 121.955 10.095C122.499 9.755 123.123 9.585 123.825 9.585C124.483 9.585 125.027 9.704 125.457 9.942C125.899 10.18 126.228 10.5427 126.443 11.03C126.659 11.506 126.766 12.1123 126.766 12.849V17.405C126.766 17.6317 126.704 17.8073 126.579 17.932C126.466 18.0567 126.302 18.119 126.086 18.119C125.86 18.119 125.684 18.0567 125.559 17.932C125.446 17.8073 125.389 17.6317 125.389 17.405V12.934C125.389 12.1633 125.236 11.6023 124.93 11.251C124.636 10.8883 124.16 10.707 123.502 10.707C122.743 10.707 122.137 10.945 121.683 11.421C121.241 11.8857 121.02 12.509 121.02 13.291V17.405C121.02 17.881 120.788 18.119 120.323 18.119ZM132.093 18.153C131.583 18.153 131.068 18.0907 130.546 17.966C130.036 17.8413 129.56 17.626 129.118 17.32C129.005 17.2407 128.926 17.15 128.88 17.048C128.835 16.9347 128.818 16.827 128.829 16.725C128.852 16.6117 128.897 16.5153 128.965 16.436C129.045 16.3567 129.135 16.3113 129.237 16.3C129.351 16.2773 129.475 16.3 129.611 16.368C130.053 16.64 130.478 16.8327 130.886 16.946C131.306 17.048 131.719 17.099 132.127 17.099C132.773 17.099 133.261 16.98 133.589 16.742C133.918 16.504 134.082 16.181 134.082 15.773C134.082 15.4557 133.975 15.2063 133.759 15.025C133.544 14.8323 133.204 14.685 132.739 14.583L131.192 14.243C130.478 14.0957 129.946 13.8407 129.594 13.478C129.254 13.1153 129.084 12.645 129.084 12.067C129.084 11.557 129.215 11.1207 129.475 10.758C129.747 10.384 130.127 10.095 130.614 9.891C131.102 9.687 131.668 9.585 132.314 9.585C132.813 9.585 133.283 9.653 133.725 9.789C134.179 9.91367 134.587 10.1177 134.949 10.401C135.063 10.4803 135.136 10.5767 135.17 10.69C135.216 10.792 135.221 10.8997 135.187 11.013C135.165 11.115 135.114 11.2057 135.034 11.285C134.955 11.353 134.859 11.3927 134.745 11.404C134.632 11.4153 134.513 11.3813 134.388 11.302C134.048 11.0753 133.703 10.911 133.351 10.809C133 10.6957 132.654 10.639 132.314 10.639C131.68 10.639 131.198 10.7637 130.869 11.013C130.541 11.2623 130.376 11.591 130.376 11.999C130.376 12.3163 130.478 12.577 130.682 12.781C130.886 12.985 131.204 13.1323 131.634 13.223L133.181 13.546C133.918 13.7047 134.468 13.9597 134.83 14.311C135.204 14.651 135.391 15.1157 135.391 15.705C135.391 16.453 135.091 17.048 134.49 17.49C133.89 17.932 133.091 18.153 132.093 18.153ZM140.091 18.153C139.524 18.153 139.014 18.0453 138.561 17.83C138.119 17.6033 137.768 17.2973 137.507 16.912C137.246 16.5267 137.116 16.096 137.116 15.62C137.116 15.008 137.269 14.5263 137.575 14.175C137.892 13.8237 138.408 13.5743 139.122 13.427C139.847 13.2797 140.833 13.206 142.08 13.206H142.845V14.107H142.097C141.179 14.107 140.454 14.1523 139.921 14.243C139.4 14.3223 139.031 14.464 138.816 14.668C138.612 14.872 138.51 15.161 138.51 15.535C138.51 15.9997 138.669 16.3793 138.986 16.674C139.315 16.9687 139.757 17.116 140.312 17.116C140.765 17.116 141.162 17.0083 141.502 16.793C141.853 16.5777 142.125 16.283 142.318 15.909C142.522 15.535 142.624 15.1043 142.624 14.617V12.679C142.624 11.9763 142.482 11.472 142.199 11.166C141.916 10.8487 141.451 10.69 140.805 10.69C140.408 10.69 140.012 10.741 139.615 10.843C139.218 10.945 138.799 11.1093 138.357 11.336C138.198 11.4153 138.062 11.4437 137.949 11.421C137.836 11.387 137.745 11.3247 137.677 11.234C137.609 11.1433 137.569 11.0413 137.558 10.928C137.547 10.8033 137.569 10.6843 137.626 10.571C137.694 10.4577 137.796 10.367 137.932 10.299C138.431 10.0497 138.924 9.86833 139.411 9.755C139.898 9.64167 140.363 9.585 140.805 9.585C141.519 9.585 142.108 9.704 142.573 9.942C143.038 10.1687 143.383 10.52 143.61 10.996C143.837 11.4607 143.95 12.0613 143.95 12.798V17.405C143.95 17.6317 143.893 17.8073 143.78 17.932C143.678 18.0567 143.525 18.119 143.321 18.119C143.106 18.119 142.941 18.0567 142.828 17.932C142.715 17.8073 142.658 17.6317 142.658 17.405V16.079H142.811C142.72 16.5097 142.545 16.878 142.284 17.184C142.035 17.49 141.723 17.728 141.349 17.898C140.975 18.068 140.556 18.153 140.091 18.153ZM147.321 19.615C147.207 19.7623 147.088 19.8473 146.964 19.87C146.839 19.8927 146.731 19.87 146.641 19.802C146.55 19.734 146.499 19.6377 146.488 19.513C146.488 19.3883 146.544 19.2523 146.658 19.105C146.839 18.867 146.964 18.6233 147.032 18.374C147.1 18.136 147.134 17.915 147.134 17.711L147.202 18.068C146.907 18.068 146.669 17.983 146.488 17.813C146.318 17.6317 146.233 17.405 146.233 17.133C146.233 16.861 146.312 16.64 146.471 16.47C146.641 16.2887 146.862 16.198 147.134 16.198C147.428 16.198 147.661 16.3 147.831 16.504C148.001 16.6967 148.086 16.98 148.086 17.354C148.086 17.592 148.063 17.8357 148.018 18.085C147.972 18.3457 147.893 18.6063 147.78 18.867C147.666 19.1277 147.513 19.377 147.321 19.615ZM158.819 18.153C158.286 18.153 157.765 18.1077 157.255 18.017C156.745 17.9263 156.269 17.796 155.827 17.626C155.396 17.456 155.005 17.2407 154.654 16.98C154.518 16.878 154.421 16.7647 154.365 16.64C154.319 16.504 154.308 16.3737 154.331 16.249C154.365 16.113 154.421 15.9997 154.501 15.909C154.591 15.8183 154.699 15.7673 154.824 15.756C154.948 15.7447 155.084 15.7843 155.232 15.875C155.742 16.2377 156.286 16.504 156.864 16.674C157.442 16.8327 158.093 16.912 158.819 16.912C159.839 16.912 160.592 16.725 161.08 16.351C161.578 15.9657 161.828 15.4613 161.828 14.838C161.828 14.328 161.646 13.9313 161.284 13.648C160.932 13.3533 160.337 13.121 159.499 12.951L157.731 12.594C156.665 12.3673 155.866 11.999 155.334 11.489C154.812 10.9677 154.552 10.2763 154.552 9.415C154.552 8.88233 154.659 8.40067 154.875 7.97C155.09 7.528 155.39 7.154 155.776 6.848C156.161 6.53067 156.62 6.287 157.153 6.117C157.685 5.947 158.275 5.862 158.921 5.862C159.635 5.862 160.298 5.964 160.91 6.168C161.533 6.36067 162.094 6.65533 162.593 7.052C162.717 7.154 162.802 7.273 162.848 7.409C162.893 7.53367 162.899 7.65833 162.865 7.783C162.831 7.89633 162.768 7.99267 162.678 8.072C162.598 8.15133 162.491 8.19667 162.355 8.208C162.23 8.21933 162.088 8.174 161.93 8.072C161.476 7.732 161.006 7.48833 160.519 7.341C160.031 7.18233 159.493 7.103 158.904 7.103C158.303 7.103 157.782 7.19367 157.34 7.375C156.909 7.55633 156.569 7.82267 156.32 8.174C156.082 8.514 155.963 8.91067 155.963 9.364C155.963 9.908 156.127 10.3387 156.456 10.656C156.796 10.9733 157.345 11.2057 158.105 11.353L159.873 11.727C161.017 11.965 161.862 12.3277 162.406 12.815C162.961 13.291 163.239 13.9427 163.239 14.77C163.239 15.2687 163.137 15.7277 162.933 16.147C162.729 16.5663 162.434 16.929 162.049 17.235C161.663 17.5297 161.199 17.7563 160.655 17.915C160.111 18.0737 159.499 18.153 158.819 18.153ZM165.711 18.068C165.428 18.068 165.201 17.983 165.031 17.813C164.861 17.6317 164.776 17.405 164.776 17.133C164.776 16.861 164.861 16.64 165.031 16.47C165.201 16.2887 165.428 16.198 165.711 16.198C165.995 16.198 166.216 16.2887 166.374 16.47C166.544 16.64 166.629 16.861 166.629 17.133C166.629 17.405 166.544 17.6317 166.374 17.813C166.216 17.983 165.995 18.068 165.711 18.068ZM174.183 18.119C173.957 18.119 173.781 18.0567 173.656 17.932C173.543 17.796 173.486 17.6147 173.486 17.388V6.729C173.486 6.491 173.549 6.31533 173.673 6.202C173.798 6.07733 173.974 6.015 174.2 6.015H178.229C179.51 6.015 180.496 6.33233 181.187 6.967C181.879 7.59033 182.224 8.47433 182.224 9.619C182.224 10.7523 181.879 11.6363 181.187 12.271C180.496 12.9057 179.51 13.223 178.229 13.223H174.88V17.388C174.88 17.6147 174.824 17.796 174.71 17.932C174.597 18.0567 174.421 18.119 174.183 18.119ZM174.88 12.05H178.059C178.977 12.05 179.669 11.846 180.133 11.438C180.609 11.0187 180.847 10.4123 180.847 9.619C180.847 8.81433 180.609 8.208 180.133 7.8C179.669 7.38067 178.977 7.171 178.059 7.171H174.88V12.05ZM186.837 18.153C186.1 18.153 185.454 17.9773 184.899 17.626C184.355 17.2747 183.93 16.7817 183.624 16.147C183.329 15.501 183.182 14.7417 183.182 13.869C183.182 12.985 183.329 12.2257 183.624 11.591C183.93 10.945 184.355 10.452 184.899 10.112C185.454 9.76067 186.1 9.585 186.837 9.585C187.585 9.585 188.225 9.772 188.758 10.146C189.291 10.52 189.648 11.0243 189.829 11.659H189.642V6.593C189.642 6.36633 189.699 6.19633 189.812 6.083C189.937 5.95833 190.112 5.896 190.339 5.896C190.554 5.896 190.719 5.95833 190.832 6.083C190.957 6.19633 191.019 6.36633 191.019 6.593V17.405C191.019 17.6317 190.962 17.8073 190.849 17.932C190.736 18.0567 190.566 18.119 190.339 18.119C190.124 18.119 189.954 18.0567 189.829 17.932C189.716 17.8073 189.659 17.6317 189.659 17.405V15.79L189.846 16.028C189.665 16.674 189.302 17.1897 188.758 17.575C188.225 17.9603 187.585 18.153 186.837 18.153ZM187.126 17.048C187.636 17.048 188.084 16.9233 188.469 16.674C188.854 16.4247 189.149 16.062 189.353 15.586C189.568 15.11 189.676 14.5377 189.676 13.869C189.676 12.8377 189.444 12.05 188.979 11.506C188.526 10.962 187.908 10.69 187.126 10.69C186.605 10.69 186.151 10.8147 185.766 11.064C185.392 11.302 185.097 11.659 184.882 12.135C184.678 12.5997 184.576 13.1777 184.576 13.869C184.576 14.889 184.808 15.6767 185.273 16.232C185.738 16.776 186.355 17.048 187.126 17.048Z" fill="white"/>
<path d="M43.1124 44.2513C41.4991 44.2513 40.2724 43.6313 39.4324 42.3913C38.5924 41.1513 38.1724 39.358 38.1724 37.0113C38.1724 34.6513 38.5924 32.858 39.4324 31.6313C40.2724 30.4046 41.4991 29.7913 43.1124 29.7913C44.7391 29.7913 45.9658 30.4046 46.7924 31.6313C47.6324 32.8446 48.0524 34.6313 48.0524 36.9913C48.0524 39.3513 47.6258 41.1513 46.7724 42.3913C45.9324 43.6313 44.7124 44.2513 43.1124 44.2513ZM43.1124 42.8313C44.2324 42.8313 45.0591 42.358 45.5924 41.4113C46.1391 40.4646 46.4124 38.9913 46.4124 36.9913C46.4124 34.9913 46.1458 33.5313 45.6124 32.6113C45.0791 31.678 44.2458 31.2113 43.1124 31.2113C41.9924 31.2113 41.1591 31.678 40.6124 32.6113C40.0791 33.5446 39.8124 35.0046 39.8124 36.9913C39.8124 38.9913 40.0791 40.4646 40.6124 41.4113C41.1591 42.358 41.9924 42.8313 43.1124 42.8313ZM55.1046 44.2513C53.5179 44.2513 52.2846 43.9113 51.4046 43.2313C50.5246 42.538 50.0846 41.5713 50.0846 40.3313C50.0846 39.4646 50.3179 38.7246 50.7846 38.1113C51.2646 37.498 51.8979 37.078 52.6846 36.8513C51.9779 36.5846 51.4246 36.158 51.0246 35.5713C50.6246 34.9846 50.4246 34.3113 50.4246 33.5513C50.4246 32.3646 50.8446 31.4446 51.6846 30.7913C52.5379 30.1246 53.6779 29.7913 55.1046 29.7913C56.5313 29.7913 57.6713 30.1246 58.5246 30.7913C59.3779 31.4446 59.8046 32.3646 59.8046 33.5513C59.8046 34.3113 59.5979 34.9913 59.1846 35.5913C58.7846 36.178 58.2379 36.598 57.5446 36.8513C58.3313 37.078 58.9579 37.498 59.4246 38.1113C59.8913 38.7246 60.1246 39.4646 60.1246 40.3313C60.1246 41.5713 59.6846 42.538 58.8046 43.2313C57.9246 43.9113 56.6913 44.2513 55.1046 44.2513ZM55.1046 36.2513C56.0779 36.2513 56.8379 36.0246 57.3846 35.5713C57.9446 35.1046 58.2246 34.478 58.2246 33.6913C58.2246 32.8913 57.9446 32.2713 57.3846 31.8313C56.8379 31.378 56.0779 31.1513 55.1046 31.1513C54.1313 31.1513 53.3713 31.378 52.8246 31.8313C52.2779 32.2713 52.0046 32.8913 52.0046 33.6913C52.0046 34.478 52.2779 35.1046 52.8246 35.5713C53.3713 36.0246 54.1313 36.2513 55.1046 36.2513ZM55.1046 42.8913C57.3979 42.8913 58.5446 42.0046 58.5446 40.2313C58.5446 38.4846 57.3979 37.6113 55.1046 37.6113C52.8113 37.6113 51.6646 38.4846 51.6646 40.2313C51.6646 42.0046 52.8113 42.8913 55.1046 42.8913ZM62.8968 44.0713V42.8313L67.7168 37.6313C68.3968 36.8846 68.8835 36.2046 69.1768 35.5913C69.4835 34.978 69.6368 34.3513 69.6368 33.7113C69.6368 32.0713 68.6835 31.2513 66.7768 31.2513C65.3501 31.2513 64.0901 31.7846 62.9968 32.8513L62.3768 31.5713C62.8968 31.038 63.5568 30.6113 64.3568 30.2913C65.1701 29.958 66.0235 29.7913 66.9168 29.7913C68.3301 29.7913 69.4101 30.1246 70.1568 30.7913C70.9168 31.4446 71.2968 32.378 71.2968 33.5913C71.2968 34.4313 71.0901 35.258 70.6768 36.0713C70.2635 36.8713 69.6301 37.7246 68.7768 38.6313L64.9968 42.6713H71.8768V44.0713H62.8968ZM75.569 44.0713V42.6713H78.789V31.9513L76.249 33.5513L75.549 32.3313L79.249 29.9713H80.429V42.6713H83.449V44.0713H75.569ZM90.1212 44.2513C89.4012 44.2513 88.6745 44.098 87.9412 43.7913C87.2078 43.4846 86.6078 43.0713 86.1412 42.5513L86.7612 41.2513C87.2412 41.7713 87.7678 42.158 88.3412 42.4113C88.9278 42.6646 89.5278 42.7913 90.1412 42.7913C91.4478 42.7913 92.4545 42.3046 93.1612 41.3313C93.8678 40.358 94.2212 38.9113 94.2212 36.9913V35.9913C93.9545 36.8713 93.4745 37.5646 92.7812 38.0713C92.1012 38.5646 91.2945 38.8113 90.3612 38.8113C89.5345 38.8113 88.8012 38.6246 88.1612 38.2513C87.5212 37.8646 87.0212 37.338 86.6612 36.6713C86.3012 36.0046 86.1212 35.238 86.1212 34.3713C86.1212 33.478 86.3078 32.6913 86.6812 32.0113C87.0678 31.318 87.5945 30.778 88.2612 30.3913C88.9412 29.9913 89.7212 29.7913 90.6012 29.7913C92.2678 29.7913 93.5478 30.398 94.4412 31.6113C95.3478 32.8113 95.8012 34.498 95.8012 36.6713C95.8012 39.098 95.3012 40.9713 94.3012 42.2913C93.3012 43.598 91.9078 44.2513 90.1212 44.2513ZM90.7012 37.4313C91.5945 37.4313 92.3212 37.1446 92.8812 36.5713C93.4412 35.9846 93.7212 35.2313 93.7212 34.3113C93.7212 33.378 93.4412 32.6246 92.8812 32.0513C92.3212 31.4646 91.5945 31.1713 90.7012 31.1713C89.8212 31.1713 89.1012 31.4646 88.5412 32.0513C87.9812 32.6246 87.7012 33.378 87.7012 34.3113C87.7012 35.2313 87.9812 35.9846 88.5412 36.5713C89.1012 37.1446 89.8212 37.4313 90.7012 37.4313ZM99.5534 44.0713V42.6713H102.773V31.9513L100.233 33.5513L99.5334 32.3313L103.233 29.9713H104.413V42.6713H107.433V44.0713H99.5534ZM111.306 44.0713L117.866 31.3913H110.406V29.9713H119.726V31.2113L113.126 44.0713H111.306ZM126.098 44.2513C125.378 44.2513 124.651 44.098 123.918 43.7913C123.184 43.4846 122.584 43.0713 122.118 42.5513L122.738 41.2513C123.218 41.7713 123.744 42.158 124.318 42.4113C124.904 42.6646 125.504 42.7913 126.118 42.7913C127.424 42.7913 128.431 42.3046 129.138 41.3313C129.844 40.358 130.198 38.9113 130.198 36.9913V35.9913C129.931 36.8713 129.451 37.5646 128.758 38.0713C128.078 38.5646 127.271 38.8113 126.338 38.8113C125.511 38.8113 124.778 38.6246 124.138 38.2513C123.498 37.8646 122.998 37.338 122.638 36.6713C122.278 36.0046 122.098 35.238 122.098 34.3713C122.098 33.478 122.284 32.6913 122.658 32.0113C123.044 31.318 123.571 30.778 124.238 30.3913C124.918 29.9913 125.698 29.7913 126.578 29.7913C128.244 29.7913 129.524 30.398 130.418 31.6113C131.324 32.8113 131.778 34.498 131.778 36.6713C131.778 39.098 131.278 40.9713 130.278 42.2913C129.278 43.598 127.884 44.2513 126.098 44.2513ZM126.678 37.4313C127.571 37.4313 128.298 37.1446 128.858 36.5713C129.418 35.9846 129.698 35.2313 129.698 34.3113C129.698 33.378 129.418 32.6246 128.858 32.0513C128.298 31.4646 127.571 31.1713 126.678 31.1713C125.798 31.1713 125.078 31.4646 124.518 32.0513C123.958 32.6246 123.678 33.378 123.678 34.3113C123.678 35.2313 123.958 35.9846 124.518 36.5713C125.078 37.1446 125.798 37.4313 126.678 37.4313ZM135.29 44.0713L141.85 31.3913H134.39V29.9713H143.71V31.2113L137.11 44.0713H135.29ZM150.882 44.2513C149.949 44.2513 149.062 44.1113 148.222 43.8313C147.382 43.538 146.675 43.118 146.102 42.5713L146.702 41.2713C147.355 41.8046 148.015 42.1913 148.682 42.4313C149.349 42.6713 150.069 42.7913 150.842 42.7913C151.855 42.7913 152.629 42.5713 153.162 42.1313C153.709 41.678 153.982 41.018 153.982 40.1513C153.982 39.3246 153.709 38.698 153.162 38.2713C152.615 37.8446 151.822 37.6313 150.782 37.6313H148.702V36.2113H150.642C151.549 36.2113 152.262 35.978 152.782 35.5113C153.315 35.0313 153.582 34.378 153.582 33.5513C153.582 32.818 153.335 32.2513 152.842 31.8513C152.362 31.4513 151.675 31.2513 150.782 31.2513C149.315 31.2513 148.035 31.7846 146.942 32.8513L146.342 31.5713C146.862 31.0113 147.522 30.578 148.322 30.2713C149.135 29.9513 149.989 29.7913 150.882 29.7913C152.242 29.7913 153.302 30.1113 154.062 30.7513C154.835 31.3913 155.222 32.278 155.222 33.4113C155.222 34.198 155.022 34.8913 154.622 35.4913C154.222 36.078 153.669 36.5046 152.962 36.7713C153.802 36.998 154.455 37.418 154.922 38.0313C155.389 38.6313 155.622 39.378 155.622 40.2713C155.622 41.4846 155.195 42.4513 154.342 43.1713C153.502 43.8913 152.349 44.2513 150.882 44.2513ZM163.334 44.2513C162.428 44.2513 161.561 44.1046 160.734 43.8113C159.908 43.518 159.208 43.1046 158.634 42.5713L159.254 41.2713C160.494 42.2846 161.848 42.7913 163.314 42.7913C164.288 42.7913 165.054 42.518 165.614 41.9713C166.174 41.4246 166.454 40.7046 166.454 39.8113C166.454 38.8913 166.188 38.138 165.654 37.5513C165.121 36.9646 164.388 36.6713 163.454 36.6713C162.108 36.6713 161.048 37.2313 160.274 38.3513H159.074V29.9713H167.254V31.3713H160.694V36.4113C161.468 35.638 162.488 35.2513 163.754 35.2513C164.634 35.2513 165.401 35.438 166.054 35.8113C166.708 36.1846 167.208 36.7113 167.554 37.3913C167.914 38.058 168.094 38.838 168.094 39.7313C168.094 40.6113 167.901 41.3913 167.514 42.0713C167.128 42.7513 166.574 43.2846 165.854 43.6713C165.148 44.058 164.308 44.2513 163.334 44.2513ZM170.826 44.0713V42.8313L175.646 37.6313C176.326 36.8846 176.813 36.2046 177.106 35.5913C177.413 34.978 177.566 34.3513 177.566 33.7113C177.566 32.0713 176.613 31.2513 174.706 31.2513C173.28 31.2513 172.02 31.7846 170.926 32.8513L170.306 31.5713C170.826 31.038 171.486 30.6113 172.286 30.2913C173.1 29.958 173.953 29.7913 174.846 29.7913C176.26 29.7913 177.34 30.1246 178.086 30.7913C178.846 31.4446 179.226 32.378 179.226 33.5913C179.226 34.4313 179.02 35.258 178.606 36.0713C178.193 36.8713 177.56 37.7246 176.706 38.6313L172.926 42.6713H179.806V44.0713H170.826Z" fill="black"/>
</svg>
