<svg width="37" height="27" viewBox="0 0 37 27" fill="none" xmlns="http://www.w3.org/2000/svg">
<path d="M16.8182 27H9.25C6.69924 27 4.51961 26.1141 2.71109 24.3422C0.902577 22.5703 -0.00112017 20.4047 1.04202e-06 17.8453C1.04202e-06 15.6516 0.658713 13.6969 1.97614 11.9813C3.29356 10.2656 5.01742 9.16875 7.14773 8.69062C7.84848 6.10312 9.25 4.00781 11.3523 2.40469C13.4545 0.801563 15.8371 0 18.5 0C21.7795 0 24.5618 1.14638 26.8469 3.43913C29.1319 5.73188 30.2738 8.523 30.2727 11.8125C32.2068 12.0375 33.8118 12.8745 35.0878 14.3235C36.3637 15.7725 37.0011 17.4667 37 19.4062C37 21.5156 36.2639 23.3089 34.7918 24.786C33.3196 26.2631 31.533 27.0011 29.4318 27H20.1818V14.9344L22.8727 17.55L25.2273 15.1875L18.5 8.4375L11.7727 15.1875L14.1273 17.55L16.8182 14.9344V27Z" fill="#205280"/>
</svg>
