<svg width="88" height="76" viewBox="0 0 88 76" fill="none" xmlns="http://www.w3.org/2000/svg">
<path d="M68.4444 66.5H88V57H68.4444V47.5L53.7778 61.75L68.4444 76V66.5ZM39.1111 0C28.3556 0 19.5556 8.55 19.5556 19C19.5556 29.45 28.3556 38 39.1111 38C49.8667 38 58.6667 29.45 58.6667 19C58.6667 8.55 49.8667 0 39.1111 0ZM39.1111 47.5C17.6 47.5 0 56.05 0 66.5V76H46.4444C44.9778 72.2 44 68.4 44 64.125C44 58.425 45.4667 53.2 48.4 47.975C45.4667 47.975 42.5333 47.5 39.1111 47.5Z" fill="#456583"/>
</svg>
