<svg width="18" height="13" viewBox="0 0 18 13" fill="none" xmlns="http://www.w3.org/2000/svg">
<path d="M9.05737 0.248875H9.1575C10.0823 0.25225 14.7679 0.286 16.0312 0.62575C16.4132 0.729439 16.7612 0.93155 17.0406 1.21188C17.3199 1.49222 17.5208 1.84096 17.6231 2.22325C17.7367 2.65075 17.8166 3.21662 17.8706 3.8005L17.8819 3.9175L17.9066 4.21L17.9156 4.327C17.9888 5.35525 17.9977 6.31825 17.9989 6.52862V6.613C17.9977 6.83125 17.9876 7.8595 17.9066 8.9305L17.8976 9.04862L17.8875 9.16562C17.8312 9.80912 17.748 10.4481 17.6231 10.9184C17.5211 11.3008 17.3203 11.6497 17.0409 11.9301C16.7615 12.2105 16.4133 12.4125 16.0312 12.5159C14.7263 12.8669 9.76612 12.8916 9.07875 12.8928H8.919C8.57137 12.8928 7.13362 12.886 5.62612 12.8342L5.43487 12.8275L5.337 12.823L5.14462 12.8151L4.95225 12.8072C3.7035 12.7521 2.51438 12.6633 1.9665 12.5148C1.58455 12.4115 1.23645 12.2096 0.957065 11.9295C0.677681 11.6493 0.476828 11.3006 0.374625 10.9184C0.24975 10.4492 0.1665 9.80912 0.11025 9.16562L0.10125 9.0475L0.09225 8.9305C0.0367285 8.1682 0.00596235 7.4043 0 6.64L0 6.50162C0.00225 6.25975 0.01125 5.42387 0.072 4.50137L0.079875 4.3855L0.08325 4.327L0.09225 4.21L0.117 3.9175L0.12825 3.8005C0.18225 3.21662 0.262125 2.64962 0.37575 2.22325C0.47778 1.8408 0.678558 1.4919 0.957952 1.21152C1.23735 0.931135 1.58554 0.729129 1.96762 0.62575C2.5155 0.4795 3.70462 0.3895 4.95337 0.33325L5.14462 0.325375L5.33812 0.318625L5.43487 0.31525L5.62725 0.307375C6.69792 0.272921 7.76903 0.253794 8.84025 0.25H9.05737V0.248875ZM7.2 3.86012V9.28038L11.8766 6.57137L7.2 3.86012Z" fill="black"/>
</svg>
